<svg width="1080" height="1080" viewBox="0 0 1080 1080" fill="none" xmlns="http://www.w3.org/2000/svg">
<rect width="1080" height="1080" fill="#171B26"/>
<path d="M429.687 371.985L511.721 769.482C514.762 784.214 534.268 787.593 542.082 774.741L623.671 640.518C625.945 636.779 629.605 634.091 633.853 633.043L801.717 591.62C816.133 588.061 818.943 568.781 806.14 561.253L454.291 354.353C441.919 347.077 426.785 357.923 429.687 371.985Z" fill="#BFC6D9"/>
<path d="M719.777 556.158C732.408 563.591 729.871 582.567 715.733 586.42L551.067 631.289L471.874 760.762C464.009 773.622 444.457 770.135 441.515 755.348L366.955 380.507C364.164 366.476 379.264 355.741 391.588 362.994L719.777 556.158Z" fill="#171B26"/>
<path fill-rule="evenodd" clip-rule="evenodd" d="M378.97 345.332C366.646 338.078 351.546 348.814 354.337 362.845L437.196 779.406C440.138 794.195 459.69 797.682 467.556 784.82L553.415 644.449C555.618 640.846 559.114 638.221 563.186 637.111L738.218 589.418C752.357 585.566 754.892 566.59 742.261 559.155L378.97 345.332ZM697.256 553.159C709.885 560.593 707.35 579.57 693.211 583.421L551.592 622.011C547.52 623.121 544.024 625.745 541.821 629.348L476.157 736.702C468.291 749.564 448.739 746.077 445.797 731.288L379.536 398.17C376.745 384.139 391.845 373.403 404.169 380.657L697.256 553.159Z" fill="#BFC6D9"/>
</svg>
